<svg width="40" height="40" viewBox="0 0 40 40" fill="none" xmlns="http://www.w3.org/2000/svg">
<path d="M6.6665 11.6666H33.3332" stroke="white" stroke-width="2" stroke-linecap="round" stroke-linejoin="round"/>
<path d="M16.6665 18.3334V28.3334" stroke="white" stroke-width="2" stroke-linecap="round" stroke-linejoin="round"/>
<path d="M23.3335 18.3334V28.3334" stroke="white" stroke-width="2" stroke-linecap="round" stroke-linejoin="round"/>
<path d="M8.3335 11.6666L10.0002 31.6666C10.0002 32.5507 10.3514 33.3985 10.9765 34.0236C11.6016 34.6488 12.4494 35 13.3335 35H26.6668C27.5509 35 28.3987 34.6488 29.0239 34.0236C29.649 33.3985 30.0002 32.5507 30.0002 31.6666L31.6668 11.6666" stroke="white" stroke-width="2" stroke-linecap="round" stroke-linejoin="round"/>
<path d="M15 11.6667V6.66667C15 6.22464 15.1756 5.80072 15.4882 5.48816C15.8007 5.17559 16.2246 5 16.6667 5H23.3333C23.7754 5 24.1993 5.17559 24.5118 5.48816C24.8244 5.80072 25 6.22464 25 6.66667V11.6667" stroke="white" stroke-width="2" stroke-linecap="round" stroke-linejoin="round"/>
</svg>
