<svg width="299" height="56" viewBox="0 0 299 56" fill="none" xmlns="http://www.w3.org/2000/svg">
<circle cx="29.0625" cy="18.125" r="18.125" fill="#FFE5A2" fill-opacity="0.5"/>
<circle cx="29.0625" cy="37.8125" r="18.125" fill="#A3FFA2" fill-opacity="0.5"/>
<circle cx="18.125" cy="28.125" r="18.125" fill="#FFA2A2" fill-opacity="0.5"/>
<circle cx="41.875" cy="28.125" r="18.125" fill="#A2C7FF" fill-opacity="0.5"/>
<path d="M82.952 39L77.832 30.104H75.048V39H71.4V16.76H79.08C80.7867 16.76 82.2267 17.0587 83.4 17.656C84.5947 18.2533 85.48 19.0533 86.056 20.056C86.6533 21.0587 86.952 22.1787 86.952 23.416C86.952 24.8667 86.5253 26.1893 85.672 27.384C84.84 28.5573 83.5493 29.3573 81.8 29.784L87.304 39H82.952ZM75.048 27.192H79.08C80.4453 27.192 81.4693 26.8507 82.152 26.168C82.856 25.4853 83.208 24.568 83.208 23.416C83.208 22.264 82.8667 21.368 82.184 20.728C81.5013 20.0667 80.4667 19.736 79.08 19.736H75.048V27.192ZM95.2668 19.704V26.232H102.947V29.208H95.2668V36.024H103.907V39H91.6188V16.728H103.907V19.704H95.2668ZM121.488 16.76V19.736H112.048V26.296H119.408V29.272H112.048V39H108.4V16.76H121.488ZM128.517 36.056H136.037V39H124.869V16.76H128.517V36.056ZM142.736 19.704V26.232H150.416V29.208H142.736V36.024H151.376V39H139.088V16.728H151.376V19.704H142.736ZM168.125 39L159.517 29.048V39H155.869V16.76H159.517V26.904L168.157 16.76H172.733L163.069 27.896L172.893 39H168.125ZM183.447 39.224C181.953 39.224 180.609 38.968 179.415 38.456C178.22 37.9227 177.281 37.176 176.599 36.216C175.916 35.256 175.575 34.136 175.575 32.856H179.479C179.564 33.816 179.937 34.6053 180.599 35.224C181.281 35.8427 182.231 36.152 183.447 36.152C184.705 36.152 185.687 35.8533 186.391 35.256C187.095 34.6373 187.447 33.848 187.447 32.888C187.447 32.1413 187.223 31.5333 186.775 31.064C186.348 30.5947 185.804 30.232 185.143 29.976C184.503 29.72 183.607 29.4427 182.455 29.144C181.004 28.76 179.82 28.376 178.903 27.992C178.007 27.5867 177.239 26.968 176.599 26.136C175.959 25.304 175.639 24.1947 175.639 22.808C175.639 21.528 175.959 20.408 176.599 19.448C177.239 18.488 178.135 17.752 179.287 17.24C180.439 16.728 181.772 16.472 183.287 16.472C185.441 16.472 187.201 17.016 188.567 18.104C189.953 19.1707 190.721 20.6427 190.871 22.52H186.839C186.775 21.7093 186.391 21.016 185.687 20.44C184.983 19.864 184.055 19.576 182.903 19.576C181.857 19.576 181.004 19.8427 180.343 20.376C179.681 20.9093 179.351 21.6773 179.351 22.68C179.351 23.3627 179.553 23.928 179.959 24.376C180.385 24.8027 180.919 25.144 181.559 25.4C182.199 25.656 183.073 25.9333 184.183 26.232C185.655 26.6373 186.849 27.0427 187.767 27.448C188.705 27.8533 189.495 28.4827 190.135 29.336C190.796 30.168 191.127 31.288 191.127 32.696C191.127 33.8267 190.817 34.8933 190.199 35.896C189.601 36.8987 188.716 37.7093 187.543 38.328C186.391 38.9253 185.025 39.224 183.447 39.224ZM199.079 16.76V39H195.431V16.76H199.079ZM228.277 23.16C227.701 22.0507 226.901 21.2187 225.877 20.664C224.853 20.088 223.669 19.8 222.325 19.8C220.853 19.8 219.541 20.1307 218.389 20.792C217.237 21.4533 216.331 22.392 215.669 23.608C215.029 24.824 214.709 26.232 214.709 27.832C214.709 29.432 215.029 30.8507 215.669 32.088C216.331 33.304 217.237 34.2427 218.389 34.904C219.541 35.5653 220.853 35.896 222.325 35.896C224.309 35.896 225.92 35.3413 227.157 34.232C228.395 33.1227 229.152 31.6187 229.429 29.72H221.077V26.808H233.333V29.656C233.099 31.384 232.48 32.9733 231.477 34.424C230.496 35.8747 229.205 37.0373 227.605 37.912C226.027 38.7653 224.267 39.192 222.325 39.192C220.235 39.192 218.325 38.712 216.597 37.752C214.869 36.7707 213.493 35.416 212.469 33.688C211.467 31.96 210.965 30.008 210.965 27.832C210.965 25.656 211.467 23.704 212.469 21.976C213.493 20.248 214.869 18.904 216.597 17.944C218.347 16.9627 220.256 16.472 222.325 16.472C224.693 16.472 226.795 17.0587 228.629 18.232C230.485 19.384 231.829 21.0267 232.661 23.16H228.277ZM240.547 16.76V30.936C240.547 32.6213 240.985 33.8907 241.859 34.744C242.755 35.5973 243.993 36.024 245.571 36.024C247.171 36.024 248.409 35.5973 249.283 34.744C250.179 33.8907 250.627 32.6213 250.627 30.936V16.76H254.275V30.872C254.275 32.6853 253.881 34.2213 253.091 35.48C252.302 36.7387 251.246 37.6773 249.923 38.296C248.601 38.9147 247.139 39.224 245.539 39.224C243.939 39.224 242.478 38.9147 241.155 38.296C239.854 37.6773 238.819 36.7387 238.051 35.48C237.283 34.2213 236.899 32.6853 236.899 30.872V16.76H240.547ZM270.577 39L265.457 30.104H262.673V39H259.025V16.76H266.705C268.412 16.76 269.852 17.0587 271.025 17.656C272.22 18.2533 273.105 19.0533 273.681 20.056C274.278 21.0587 274.577 22.1787 274.577 23.416C274.577 24.8667 274.15 26.1893 273.297 27.384C272.465 28.5573 271.174 29.3573 269.425 29.784L274.929 39H270.577ZM262.673 27.192H266.705C268.07 27.192 269.094 26.8507 269.777 26.168C270.481 25.4853 270.833 24.568 270.833 23.416C270.833 22.264 270.492 21.368 269.809 20.728C269.126 20.0667 268.092 19.736 266.705 19.736H262.673V27.192ZM282.86 16.76V30.936C282.86 32.6213 283.297 33.8907 284.172 34.744C285.068 35.5973 286.305 36.024 287.884 36.024C289.484 36.024 290.721 35.5973 291.596 34.744C292.492 33.8907 292.94 32.6213 292.94 30.936V16.76H296.588V30.872C296.588 32.6853 296.193 34.2213 295.404 35.48C294.614 36.7387 293.558 37.6773 292.236 38.296C290.913 38.9147 289.452 39.224 287.852 39.224C286.252 39.224 284.79 38.9147 283.468 38.296C282.166 37.6773 281.132 36.7387 280.364 35.48C279.596 34.2213 279.212 32.6853 279.212 30.872V16.76H282.86Z" fill="#425C81"/>
</svg>
